<svg version="1.0" xmlns="http://www.w3.org/2000/svg"
 width="474.000000pt" height="744.000000pt" viewBox="0 0 474.000000 744.000000"
 preserveAspectRatio="xMidYMid meet">

<g transform="translate(0.000000,744.000000) scale(0.100000,-0.100000)"
fill="#000000" stroke="none">
<path d="M0 3720 l0 -3720 2370 0 2370 0 0 3720 0 3720 -2370 0 -2370 0 0
-3720z m2484 2984 c10 -4 16 -18 16 -41 0 -30 -3 -34 -22 -31 -15 2 -24 11
-26 26 -2 12 -10 22 -18 22 -11 0 -14 -15 -14 -65 0 -51 3 -65 15 -65 8 0 15
9 15 20 0 15 7 20 25 20 21 0 25 -5 25 -30 0 -37 -34 -54 -86 -44 l-34 6 0 88
c0 61 4 90 13 93 18 8 73 8 91 1z m140 0 c13 -5 16 -23 16 -90 0 -82 -1 -85
-26 -94 -15 -6 -42 -8 -60 -4 l-34 6 0 88 c0 61 4 90 13 93 18 8 73 8 91 1z
m137 -4 c14 -8 19 -21 19 -55 0 -41 -3 -45 -27 -51 -50 -10 -53 -13 -53 -44 0
-23 -4 -30 -20 -30 -19 0 -20 7 -20 95 l0 95 41 0 c22 0 49 -5 60 -10z m133 4
c13 -5 16 -23 16 -95 0 -81 -2 -89 -19 -89 -15 0 -21 8 -23 32 -4 46 -28 49
-28 4 0 -32 -3 -36 -25 -36 -25 0 -25 1 -25 89 0 62 4 91 13 94 18 8 73 8 91
1z m-844 -84 c0 -33 -4 -60 -10 -60 -6 0 -10 27 -10 60 0 33 4 60 10 60 6 0
10 -27 10 -60z m194 -14 c-10 -31 -21 -56 -26 -56 -4 0 -8 3 -8 6 0 16 24 90
33 102 18 24 19 4 1 -52z m-256 32 c14 -14 16 -78 2 -78 -5 0 -10 14 -10 30 0
20 -5 30 -15 30 -9 0 -18 -12 -21 -30 -9 -43 -24 -37 -24 9 0 33 4 40 23 44
12 2 24 5 28 6 3 0 10 -4 17 -11z m119 -20 l10 -23 7 23 c4 12 12 22 17 22 5
0 14 -10 19 -22 l9 -23 7 23 c3 12 13 22 20 22 12 0 12 -6 -1 -36 -8 -20 -15
-38 -15 -40 0 -14 -22 0 -30 19 l-9 22 -7 -22 c-8 -30 -30 -29 -38 1 -3 13 -9
31 -12 40 -10 25 12 19 23 -6z m-207 4 c0 -4 -5 -13 -12 -20 -9 -9 -9 -12 0
-12 7 0 12 -7 12 -14 0 -12 -6 -13 -30 -5 -35 13 -39 36 -7 49 28 11 37 12 37
2z m404 -2 c34 -12 33 -36 0 -44 -30 -8 -45 1 -25 13 9 6 10 11 2 15 -11 7
-16 26 -7 26 3 0 16 -4 30 -10z m476 -227 c0 -14 -34 -43 -51 -43 -16 0 -17 3
-7 25 7 16 19 25 35 25 12 0 23 -3 23 -7z m-1245 -59 c14 -6 45 -53 45 -69 0
-3 -11 -5 -24 -5 -16 0 -27 7 -31 20 -5 15 -15 20 -40 20 -30 0 -35 -4 -45
-36 -13 -38 -8 -88 11 -111 17 -20 57 -16 71 7 7 11 23 20 35 20 19 0 21 -3
14 -22 -11 -32 -68 -60 -106 -52 -16 3 -41 17 -54 31 -21 24 -23 34 -19 96 3
58 8 73 27 88 23 19 83 25 116 13z m231 -111 l42 -113 -25 0 c-16 0 -27 7 -30
20 -4 16 -14 20 -53 20 -39 0 -49 -4 -53 -20 -3 -13 -14 -20 -30 -20 l-26 0
31 83 c17 45 35 97 41 115 9 27 15 32 36 30 23 -3 30 -15 67 -115z m114 17 l0
-100 50 0 c38 0 50 -4 50 -15 0 -12 -15 -15 -75 -15 l-75 0 0 115 0 115 25 0
25 0 0 -100z m290 80 c0 -18 -7 -20 -55 -20 -54 0 -55 0 -55 -30 0 -29 2 -30
45 -30 33 0 45 -4 45 -15 0 -11 -12 -15 -45 -15 -45 0 -45 0 -45 -35 l0 -35
55 0 c42 0 55 -3 55 -15 0 -12 -16 -15 -80 -15 l-80 0 0 115 0 115 80 0 c73 0
80 -2 80 -20z m120 -56 l45 -75 3 75 c3 73 4 76 27 76 l25 0 0 -115 0 -115
-27 0 c-24 0 -34 10 -63 61 -53 93 -60 94 -60 10 0 -64 -2 -71 -20 -71 -19 0
-20 7 -20 115 0 113 0 115 23 115 17 0 32 -17 67 -76z m281 48 c39 -35 50
-102 25 -150 -21 -42 -44 -52 -110 -52 l-56 0 0 115 0 115 55 0 c46 0 60 -5
86 -28z m196 -4 c6 -18 25 -70 42 -115 l30 -83 -25 0 c-17 0 -28 7 -31 20 -4
16 -14 20 -53 20 -39 0 -49 -4 -53 -20 -3 -13 -14 -20 -30 -20 l-25 0 33 88
c18 48 38 99 44 115 16 40 54 37 68 -5z m248 7 c30 -29 31 -54 5 -88 l-21 -26
21 -40 c25 -50 25 -51 -5 -51 -19 0 -29 9 -42 38 -12 24 -26 38 -41 40 -20 3
-22 -1 -22 -37 0 -37 -2 -41 -25 -41 l-25 0 0 115 0 115 65 0 c57 0 69 -3 90
-25z m115 -90 l0 -115 -25 0 -25 0 0 115 0 115 25 0 25 0 0 -115z m198 95 c41
-39 48 -141 12 -185 -23 -27 -75 -37 -113 -21 -40 16 -54 37 -57 81 -5 67 1
93 25 119 31 33 100 37 133 6z m-1518 -1530 c28 -28 25 -41 -15 -94 l-35 -46
35 0 c24 0 35 -5 35 -15 0 -12 -14 -15 -65 -15 -36 0 -65 4 -65 9 0 5 20 31
45 59 25 27 45 57 45 66 0 24 -31 32 -45 13 -13 -18 -45 -23 -45 -7 0 19 40
50 65 50 14 0 34 -9 45 -20z m155 0 c23 -25 14 -59 -26 -105 l-31 -35 36 0
c25 0 36 -4 36 -15 0 -12 -13 -15 -60 -15 -37 0 -60 4 -60 11 0 6 18 33 40 59
22 26 40 55 40 64 0 24 -31 32 -45 13 -12 -17 -45 -24 -45 -10 0 4 10 17 22
30 26 28 69 30 93 3z m117 15 c8 -9 -58 -199 -71 -203 -16 -5 -14 1 20 110 29
92 37 106 51 93z m268 -90 c0 -88 -1 -95 -20 -95 -18 0 -20 7 -20 71 0 67 -1
71 -21 66 -15 -4 -19 -1 -17 10 2 13 31 29 76 42 1 1 2 -42 2 -94z m-150 -5
c0 -83 -1 -90 -20 -90 -18 0 -20 7 -20 71 0 66 -1 71 -20 66 -28 -7 -26 21 3
33 54 22 57 17 57 -80z m465 40 c-3 -5 -13 -10 -21 -10 -10 0 -14 -12 -14 -45
0 -25 -4 -45 -10 -45 -5 0 -10 20 -10 45 0 33 -4 45 -15 45 -8 0 -15 5 -15 10
0 6 21 10 46 10 27 0 43 -4 39 -10z m85 0 c0 -5 -11 -10 -25 -10 -14 0 -25 -4
-25 -10 0 -5 9 -10 20 -10 11 0 20 -4 20 -10 0 -5 -9 -10 -20 -10 -11 0 -20
-7 -20 -15 0 -9 9 -15 25 -15 14 0 25 -4 25 -10 0 -5 -16 -10 -35 -10 l-35 0
0 55 0 55 35 0 c19 0 35 -4 35 -10z m89 -4 c9 -11 10 -20 1 -36 -9 -16 -8 -25
1 -36 6 -8 8 -18 4 -22 -4 -4 -14 3 -22 16 -19 27 -33 28 -33 2 0 -11 -4 -20
-10 -20 -5 0 -10 25 -10 55 0 54 1 55 29 55 16 0 34 -6 40 -14z m105 -2 c4 -9
3 -20 0 -23 -4 -3 -9 0 -11 7 -7 19 -41 14 -48 -7 -12 -39 16 -66 43 -39 20
20 26 -1 6 -23 -10 -12 -18 -24 -16 -27 2 -4 -2 -8 -9 -11 -6 -2 -9 1 -6 6 4
6 -5 20 -18 31 -27 23 -31 51 -15 83 13 24 65 26 74 3z m94 -36 c11 -29 19
-54 17 -56 -2 -2 -14 4 -28 13 -23 15 -26 15 -41 -1 -9 -9 -19 -14 -21 -12 -9
8 29 108 41 108 7 0 21 -24 32 -52z m-1770 -864 c102 -42 162 -134 162 -249 0
-159 -111 -269 -271 -268 -117 0 -222 77 -254 186 -19 64 -19 100 0 163 44
148 217 228 363 168z m2516 -60 c57 -58 71 -98 71 -196 0 -84 -1 -87 -40 -143
-22 -31 -55 -66 -72 -77 l-33 -20 0 246 c0 242 0 247 20 236 11 -6 35 -26 54
-46z m-1749 -68 c28 -28 39 -77 33 -152 -6 -72 -39 -109 -98 -109 -58 0 -89
35 -97 107 -12 117 22 178 97 178 30 0 47 -6 65 -24z m232 2 c27 -25 31 -79 8
-98 -13 -11 -12 -15 5 -37 26 -34 25 -66 -4 -99 -20 -24 -31 -28 -76 -28 -45
0 -56 4 -76 28 -29 33 -30 65 -4 99 17 22 18 26 5 37 -25 21 -19 76 11 99 36
29 100 28 131 -1z m335 11 c45 -24 65 -156 32 -225 -28 -59 -108 -68 -155 -18
-42 45 -39 185 6 230 26 26 81 32 117 13z m243 -13 c29 -29 39 -80 32 -151 -7
-65 -23 -92 -63 -105 -71 -24 -125 19 -132 104 -10 117 23 176 98 176 30 0 47
-6 65 -24z m756 -66 c10 -26 16 -30 47 -30 l37 -1 -29 -23 c-27 -22 -28 -26
-17 -56 15 -44 15 -44 -18 -21 -35 25 -39 26 -63 4 -23 -21 -31 -13 -19 20 9
23 6 29 -22 51 l-32 26 42 0 c38 0 42 3 48 30 4 17 9 30 11 30 3 0 10 -13 15
-30z m-1196 -10 c0 -20 -6 -26 -28 -28 -18 -2 -29 2 -33 12 -11 28 4 48 33 44
22 -2 28 -8 28 -28z m1 -142 c9 -28 -20 -52 -47 -37 -19 10 -25 39 -12 52 15
16 52 6 59 -15z m-368 -868 c40 -38 25 -106 -37 -164 -17 -17 -31 -33 -31 -38
0 -4 23 -8 50 -8 47 0 50 -2 50 -25 l0 -25 -100 0 c-83 0 -100 3 -100 15 0 9
29 49 65 90 36 41 65 79 65 84 0 42 -41 55 -62 21 -17 -27 -68 -28 -68 -1 0
10 12 30 26 45 35 34 108 37 142 6z m212 -120 l0 -140 -35 0 -35 0 0 101 0
101 -30 -7 c-27 -6 -30 -4 -30 18 0 22 8 28 58 45 31 11 60 21 65 21 4 1 7
-62 7 -139z m365 116 c28 -28 39 -77 33 -152 -6 -72 -39 -109 -98 -109 -59 0
-92 37 -98 109 -10 117 23 176 98 176 30 0 47 -6 65 -24z m230 0 c45 -45 48
-185 5 -231 -46 -48 -115 -41 -150 17 -37 61 -21 199 27 227 33 19 92 13 118
-13z m996 -13 c10 -11 14 -45 14 -108 0 -63 -4 -97 -14 -108 -12 -15 -43 -17
-257 -17 l-244 0 -12 28 c-6 15 -12 59 -12 97 0 39 6 82 12 98 l12 27 244 0
c214 0 245 -2 257 -17z m-2413 -30 c16 -39 7 -147 -16 -190 -109 -209 -393
-209 -496 -1 -26 52 -34 131 -20 186 l6 22 259 0 c238 0 260 -1 267 -17z m980
-36 c-2 -17 -10 -22 -33 -22 -35 0 -47 31 -20 51 25 18 57 0 53 -29z m-3 -147
c0 -20 -6 -26 -28 -28 -29 -4 -44 16 -33 44 4 10 15 14 33 12 22 -2 28 -8 28
-28z m-1112 -744 c25 -14 62 -45 82 -68 36 -43 72 -137 61 -164 -4 -12 -49
-14 -276 -14 l-270 0 0 34 c0 57 58 156 114 194 64 43 98 52 178 48 50 -2 78
-10 111 -30z m2384 21 c56 -21 120 -74 150 -124 25 -43 28 -57 28 -140 0 -90
0 -92 -40 -149 -73 -105 -198 -148 -316 -109 -104 35 -189 151 -189 260 0 109
82 223 187 261 46 16 137 17 180 1z m-1639 -137 c24 -23 29 -68 11 -103 -6
-12 -30 -41 -52 -64 l-41 -43 57 0 c54 0 57 -1 57 -25 l0 -25 -100 0 c-124 0
-125 4 -35 107 36 41 65 78 65 83 0 41 -41 54 -62 20 -17 -27 -68 -28 -68 -1
0 10 12 30 26 45 35 34 108 37 142 6z m230 0 c30 -28 33 -71 7 -100 -11 -13
-10 -19 6 -39 56 -68 -25 -147 -123 -120 -37 10 -58 33 -58 63 0 23 46 20 70
-4 26 -26 60 -12 60 24 0 24 -17 36 -52 36 -34 0 -19 44 17 50 24 4 30 10 30
30 0 20 -6 26 -27 28 -16 2 -28 -1 -28 -7 0 -6 -16 -11 -35 -11 -43 0 -46 20
-9 49 36 29 112 29 142 1z m334 9 c50 -27 66 -169 26 -229 -41 -60 -115 -60
-155 0 -40 59 -26 200 24 229 24 14 79 14 105 0z m243 -13 c46 -46 47 -188 1
-234 -27 -28 -94 -34 -121 -12 -61 51 -60 223 2 259 33 19 92 13 118 -13z
m-435 -75 c0 -22 -25 -34 -51 -26 -24 8 -25 41 -2 54 23 12 53 -4 53 -28z m-5
-151 c0 -20 -6 -26 -28 -28 -18 -2 -29 2 -33 12 -11 28 4 48 33 44 22 -2 28
-8 28 -28z m-30 -500 c1255 0 1702 3 1718 11 22 12 22 12 3 -10 l-19 -21
-1702 0 -1702 0 -19 21 c-19 22 -19 22 3 10 16 -8 463 -11 1718 -11z"/>
<path d="M2560 6615 c0 -58 2 -65 20 -65 18 0 20 7 20 65 0 58 -2 65 -20 65
-18 0 -20 -7 -20 -65z"/>
<path d="M2700 6650 c0 -20 5 -30 15 -30 10 0 15 10 15 30 0 20 -5 30 -15 30
-10 0 -15 -10 -15 -30z"/>
<path d="M2840 6650 c0 -20 5 -30 15 -30 10 0 15 10 15 30 0 20 -5 30 -15 30
-10 0 -15 -10 -15 -30z"/>
<path d="M1686 6246 c-3 -13 -9 -31 -12 -40 -5 -13 1 -16 25 -16 36 0 36 0 17
45 -18 41 -22 43 -30 11z"/>
<path d="M2480 6220 c0 -73 2 -80 20 -80 33 0 60 35 60 78 0 47 -24 82 -56 82
-23 0 -24 -2 -24 -80z"/>
<path d="M2716 6239 c-9 -47 -8 -49 20 -49 20 0 25 4 20 16 -3 9 -9 27 -12 40
-8 33 -20 30 -28 -7z"/>
<path d="M2910 6265 c0 -32 3 -35 29 -35 35 0 55 22 46 50 -5 15 -15 20 -41
20 -32 0 -34 -2 -34 -35z"/>
<path d="M3229 6284 c-7 -9 -13 -37 -13 -64 0 -27 6 -55 13 -64 17 -20 55 -21
72 0 17 21 18 107 0 127 -17 21 -55 22 -72 1z"/>
<path d="M2790 4725 c0 -8 7 -15 15 -15 8 0 15 7 15 15 0 8 -7 15 -15 15 -8 0
-15 -7 -15 -15z"/>
<path d="M3000 4711 c0 -12 5 -21 10 -21 6 0 10 6 10 14 0 8 -4 18 -10 21 -5
3 -10 -3 -10 -14z"/>
<path d="M1125 3680 c-12 -4 -26 -14 -33 -22 -10 -13 -4 -16 40 -21 30 -4 67
-17 90 -32 41 -27 49 -19 26 30 -20 44 -76 65 -123 45z"/>
<path d="M1075 3590 c-18 -29 38 -90 82 -90 13 0 38 7 54 16 30 15 30 16 12
36 -34 39 -132 64 -148 38z"/>
<path d="M1947 3684 c-4 -4 -7 -42 -7 -84 0 -57 4 -81 15 -90 12 -10 18 -10
30 0 12 10 15 31 13 94 -3 73 -5 81 -23 84 -12 2 -24 0 -28 -4z"/>
<path d="M2177 3676 c-10 -26 4 -47 27 -44 15 2 21 10 21 28 0 29 -38 41 -48
16z"/>
<path d="M2187 3568 c-34 -19 -9 -76 27 -62 19 7 22 60 3 67 -7 3 -21 1 -30
-5z"/>
<path d="M2527 3684 c-4 -4 -7 -42 -7 -84 0 -57 4 -81 15 -90 12 -10 18 -10
30 0 12 10 15 31 13 94 -3 73 -5 81 -23 84 -12 2 -24 0 -28 -4z"/>
<path d="M2757 3684 c-4 -4 -7 -42 -7 -84 0 -57 4 -81 15 -90 12 -10 18 -10
30 0 12 10 15 31 13 94 -3 73 -5 81 -23 84 -12 2 -24 0 -28 -4z"/>
<path d="M2527 2594 c-4 -4 -7 -42 -7 -84 0 -57 4 -81 15 -90 12 -10 18 -10
30 0 12 10 15 31 13 94 -3 73 -5 81 -23 84 -12 2 -24 0 -28 -4z"/>
<path d="M2757 2594 c-4 -4 -7 -42 -7 -84 0 -57 4 -81 15 -90 12 -10 18 -10
30 0 12 10 15 31 13 94 -3 73 -5 81 -23 84 -12 2 -24 0 -28 -4z"/>
<path d="M3504 1496 c-26 -26 -34 -42 -34 -70 0 -74 47 -126 113 -126 72 0
121 47 121 115 0 71 -47 115 -125 115 -33 0 -47 -6 -75 -34z"/>
<path d="M2524 1497 c-2 -8 -4 -47 -2 -88 3 -71 4 -74 28 -74 25 0 25 1 25 85
0 81 -1 85 -23 88 -12 2 -24 -3 -28 -11z"/>
<path d="M2754 1497 c-2 -8 -4 -47 -2 -88 3 -71 4 -74 28 -74 25 0 25 1 25 85
0 81 -1 85 -23 88 -12 2 -24 -3 -28 -11z"/>
</g>
</svg>
